<svg width="176" height="27" viewBox="0 0 176 27" fill="none" xmlns="http://www.w3.org/2000/svg">
<path d="M20.9053 7.40581C20.9053 9.3762 19.9567 11.2735 17.5851 12.3314C20.5772 13.2439 21.6714 16.4178 21.6714 18.0225C21.6714 23.7142 17.4026 25.5384 12.1135 25.5384C8.06333 25.5384 4.05013 25.5384 0 25.5384V0C4.0132 0 8.06333 0 12.1135 0C17.1477 0 20.9053 2.26222 20.9053 7.40581ZM4.74241 10.2517H12.1127C15.1411 10.2517 16.1252 8.97503 16.1252 7.51588C16.1252 6.34856 15.1773 4.37817 12.1127 4.37817H4.74241V10.2517ZM4.74241 21.0516H12.1127C14.0831 21.0516 16.8921 20.3948 16.8921 17.987C16.8921 15.6886 14.0831 14.4843 12.1127 14.4843H4.74241V21.0516Z" fill="black"/>
<path d="M36.2101 7.65345C35.3607 7.29645 34.3722 7.07776 33.3584 7.07776C31.5336 7.07776 29.6733 7.4058 28.2865 9.63109L27.9585 7.55207H23.8359V25.5383H28.2865V16.0521C28.2865 12.7326 30.4394 11.4921 32.774 11.4921C33.4946 11.4921 34.0608 11.5913 34.5634 11.7825L36.2101 7.65345Z" fill="black"/>
<path d="M49.884 7.55208H54.1528V25.5383H49.9564L49.7377 22.9119C48.7159 25.0278 45.907 26.0496 43.8997 26.0858C38.5736 26.1227 34.6328 22.8387 34.6328 16.5271C34.6328 10.3256 38.7554 7.07777 44.0097 7.11398C46.4168 7.11398 48.7152 8.24509 49.737 10.033L49.884 7.55208ZM39.0841 16.5271C39.0841 19.9567 41.4557 22.0002 44.4109 22.0002C51.4155 22.0002 51.4155 11.0917 44.4109 11.0917C41.4557 11.091 39.0841 13.0983 39.0841 16.5271Z" fill="black"/>
<path d="M70.1666 25.5383V16.1259C70.1666 13.3894 68.6712 11.3104 65.8253 11.3104C63.0895 11.3104 61.2277 13.6088 61.2277 16.3446V25.5383H56.8134V7.51588H60.7896L61.0815 9.96058C62.9063 8.17267 64.7297 7.26025 66.9919 7.26025C71.2238 7.26025 74.6164 10.4342 74.6164 16.089V25.5383H70.1666Z" fill="black"/>
<path d="M95.5368 0.0362244V25.5384H91.3774L91.0863 23.0574C89.6988 25.2103 87.4742 25.9395 85.2844 25.9395C79.9946 25.9395 76.0176 22.4369 76.0176 16.5264C76.0176 10.3248 79.9214 7.11327 85.1751 7.11327C87.0716 7.11327 90.0276 8.13504 91.0855 9.99536V0.0362244H95.5368ZM80.4682 16.5271C80.4682 19.6648 82.7297 21.8177 85.5755 21.8177C88.3859 21.8177 90.793 19.7749 90.793 16.5271C90.793 13.3894 88.3859 11.2735 85.5755 11.2735C82.7297 11.2735 80.4682 13.2808 80.4682 16.5271Z" fill="black"/>
<path d="M113.249 7.5159L117.189 21.0516L121.311 7.5159H126.236L119.961 25.6122H114.78L112.921 20.2854L111.315 14.2656L109.71 20.2854L107.849 25.6122H102.668L96.356 7.5159H101.319L105.44 21.0516L109.346 7.5159H113.249Z" fill="black"/>
<path d="M130.028 18.1326C130.321 20.3578 132.255 21.9633 135.392 21.9633C137.034 21.9633 139.186 21.3434 140.207 20.2854L143.053 23.0951C141.156 25.0655 138.055 26.0134 135.319 26.0134C129.116 26.0134 125.432 22.1827 125.432 16.4178C125.432 10.9454 129.153 7.00537 134.99 7.00537C141.01 7.00537 144.768 10.7267 144.075 18.1326H130.028ZM139.807 14.4474C139.515 12.1128 137.69 10.9454 135.137 10.9454C132.729 10.9454 130.758 12.1128 130.102 14.4474H139.807Z" fill="black"/>
<path d="M150.051 0.0362244V25.5384H145.635V0.0362244H150.051Z" fill="black"/>
<path d="M157.174 0.0362244V25.5384H152.759V0.0362244H157.174Z" fill="black"/>
<path d="M158.87 1.54027V0.0615693H165.981V1.54027H163.28V7.32617H161.545V1.54027H158.87ZM168.886 0.0362244L171.385 3.22245L173.934 0.0362244H175.667V7.32545H173.883L173.959 2.53379L171.538 5.5933H171.18L168.81 2.45776L168.886 7.32617H167.103V0.0362244H168.886Z" fill="black"/>
</svg>
