<svg width="54" height="55" viewBox="0 0 54 55" fill="none" xmlns="http://www.w3.org/2000/svg">
<path opacity="0.95" d="M27.1328 0C12.6615 0 0.930176 12.1384 0.930176 27.1099C0.930176 42.0798 12.6615 54.2182 27.1328 54.2182C41.6025 54.2182 53.3354 42.0798 53.3354 27.1099C53.3354 12.1368 41.6025 0 27.1328 0ZM34.0424 15.1321C33.4479 14.896 32.6686 14.7065 31.6642 14.7065C28.873 14.7065 27.9121 17.1187 27.9121 19.9582V21.1419H32.8068V25.4942H27.9587V44.1869H22.3328V25.4958H19.3135V21.1435H22.3328V20.1493C22.3328 17.1685 23.109 14.1877 25.0309 12.2926C26.678 10.685 28.918 10.0698 30.8399 10.0698C32.3503 10.0698 33.5379 10.3043 34.4538 10.6384L34.0424 15.1321Z" fill="#060606"/>
</svg>
