<svg width="53" height="55" viewBox="0 0 53 55" fill="none" xmlns="http://www.w3.org/2000/svg">
<path opacity="0.95" d="M26.2027 0C11.7314 0 0 12.1372 0 27.1091C0 42.0794 11.7314 54.2182 26.2027 54.2182C40.6725 54.2182 52.4055 42.0794 52.4055 27.1091C52.4055 12.1372 40.6741 0 26.2027 0ZM26.2027 44.6925C23.6397 44.6925 21.0395 44.6716 18.4765 44.6331C16.0765 44.5897 13.7914 43.5699 12.0419 41.7582C10.2923 39.9465 9.30656 37.584 9.26464 35.1058C9.18547 29.7977 9.18547 24.4189 9.26464 19.1172C9.30656 16.6326 10.2923 14.2701 12.0419 12.46C13.7914 10.6499 16.0765 9.62687 18.4734 9.58511C21.0379 9.54656 23.6382 9.52408 26.2027 9.52408C28.7642 9.52408 31.3629 9.54656 33.929 9.58511C36.3289 9.62687 38.6125 10.6499 40.3636 12.46C42.1131 14.2701 43.0989 16.6326 43.1408 19.1124C43.22 24.4189 43.22 29.7977 43.1408 35.101C43.0989 37.584 42.1131 39.9465 40.3636 41.7582C38.6125 43.5699 36.329 44.5897 33.9321 44.6331C31.3644 44.6716 28.7657 44.6925 26.2027 44.6925ZM26.2027 12.6431C23.6537 12.6431 21.0705 12.6656 18.5231 12.7041C15.1963 12.7619 12.3368 15.7236 12.2794 19.167C12.2033 24.435 12.2033 29.7816 12.2794 35.0544C12.3368 38.4962 15.1979 41.4546 18.5262 41.5141C21.0721 41.5526 23.6553 41.5735 26.2027 41.5735C28.7502 41.5735 31.3349 41.5526 33.8824 41.5141C37.2092 41.4546 40.0671 38.4946 40.1245 35.0512C40.2022 29.7832 40.2022 24.4366 40.1245 19.1638C40.0671 15.722 37.2076 12.7619 33.8793 12.7041C31.3349 12.664 28.7518 12.6431 26.2027 12.6431ZM26.2027 35.9811C21.4742 35.9811 17.6273 31.9996 17.6273 27.1091C17.6273 22.2186 21.4757 18.2371 26.2027 18.2371C30.9298 18.2371 34.7781 22.2186 34.7781 27.1091C34.7781 31.9996 30.9313 35.9811 26.2027 35.9811ZM26.2027 21.3529C23.1352 21.3529 20.6421 23.9339 20.6421 27.1075C20.6421 30.2811 23.1352 32.8621 26.2027 32.8621C29.2687 32.8621 31.7634 30.2811 31.7634 27.1075C31.7634 23.9339 29.2687 21.3529 26.2027 21.3529ZM37.4451 17.8468C37.4451 19.0385 36.5106 20.0054 35.3572 20.0054C34.2068 20.0054 33.2723 19.0385 33.2723 17.8468C33.2723 16.6551 34.2068 15.6866 35.3572 15.6866C36.5106 15.6866 37.4451 16.6551 37.4451 17.8468Z" fill="#060606"/>
</svg>
