<svg width="54" height="55" viewBox="0 0 54 55" fill="none" xmlns="http://www.w3.org/2000/svg">
<path d="M27.0621 0.687012C12.5939 0.687012 0.859375 12.8242 0.859375 27.7961C0.859375 42.7664 12.5939 54.9052 27.0621 54.9052C41.5335 54.9052 53.2648 42.7664 53.2648 27.7961C53.2648 12.8242 41.5335 0.687012 27.0621 0.687012ZM19.8916 37.863H14.9426V20.2732H19.8916V37.863ZM14.6011 15.6541C14.6011 11.8156 20.2347 11.8156 20.2347 15.6541C20.2347 19.491 14.6011 19.491 14.6011 15.6541ZM41.2851 37.863H36.3066V28.5879C36.3066 25.8881 35.1733 24.502 32.8013 24.502C30.5006 24.4667 28.9529 26.5273 28.9529 28.8015V37.863H24.0769V20.3085H28.54L28.7123 22.5474C30.2228 20.5221 32.1477 19.8476 34.2093 19.8829C38.0204 19.8829 41.2835 21.7299 41.2835 28.5526V37.863H41.2851Z" fill="#060606"/>
</svg>
